<svg xmlns="http://www.w3.org/2000/svg" width="1200" height="211">
  <g fill="none" fill-rule="evenodd">
    <g transform="translate(-14 -232)">
      <path fill="#EBEEF3" fill-rule="nonzero" d="M1097.71617 247.725079l-326.742389 97.442684c-7.703238 2.297297-14.080056 7.737424-17.56226 14.98254l-62.919673 130.911433 419.000002-128.5.45318-105.681671c.02253-5.25266-4.21734-9.529042-9.47-9.551567-.9341-.004005-1.8637.129623-2.75886.396581z"/>
      <path fill="#4FC0B2" fill-rule="nonzero" d="M1083.62412 412.823324l-90.873779 27.855236c-5.020658 1.541183-7.843972 6.858969-6.307962 11.881212l16.386731 53.501964h96.66274l-3.57804-84.547288c-.22209-5.24801-4.65649-9.32232-9.9045-9.100224-.80924.034247-1.61079.171726-2.38519.4091z"/>
      <path fill="#EBEEF3" fill-rule="nonzero" d="M1044.49185 178.449221v42.890581c0 4.185097-2.73573 7.878393-6.73916 9.098037l-250.177141 76.216287c-5.024707 1.530774-10.338973-1.301619-11.869747-6.326325-.607135-1.992901-.54312-4.130023.182212-6.08301l47.235248-127.183055 221.368588 11.387485zM786.491848 187.196417l-131.32922 304.173566c-1.328151 3.07615-4.176962 5.2265-7.499336 5.660677l-99.7153 13.031076-27.362136-116.414233c-.655392-2.788412-.019164-5.7237 1.731951-7.990498l150.561334-194.899901c1.803596-2.334734 4.588551-3.700285 7.538793-3.696508l106.073914.135821zM626.954914 159.37594l-90.698193 15.869971h-48.708452l-20.056421 5.729607 32.77774 146.218764c1.14898 5.125503 6.235454 8.349113 11.360958 7.200133 2.186497-.490145 4.129724-1.736551 5.48704-3.519443l119.044045-156.369394c3.181769-4.179389 2.373039-10.146786-1.806349-13.328555-2.108216-1.604985-4.79039-2.257766-7.400368-1.801083zM440.276752 227.196731l66.215096 298.865005-79.603455-2.85154-106.455785-40.67668c-8.175987-3.124039-14.465812-9.827769-17.063158-18.186009l-60.9876-196.257637c-1.558765-5.016094 1.243953-10.34607 6.260047-11.904835a9.51062833 9.51062833 0 01.95176-.242652l179.526763-36.013451c5.077211-1.018499 10.036202 2.212039 11.156332 7.267799zM66.215096 81.1349957L0 380l79.603454-2.85154 106.4557859-40.67668c8.1759871-3.124038 14.465812-9.827769 17.0631581-18.186009l60.9876003-196.257637c1.55876489-5.016093-1.24395384-10.346069-6.2600475-11.904834-.31286223-.097223-.63053905-.178215-.95175992-.242653L77.371427 73.8671967c-5.07721-1.0184992-10.036201 2.2120385-11.156331 7.267799zM34.3979359 431.31682469l9.60206372 11.68317504 132.41660593 2e-7c15.7581242-7e-8 28.5326083-12.774484 28.53260828-28.53260856l-2.3e-7-47.13786035c1.4e-7-5.25270789-4.25816094-9.51086877-9.51086944-9.51086928-1.14618148 2.5e-7-2.28292482.20718096-3.3554067.61155068L38.39023222 416.37863975c-4.9149581 1.85314092-7.397052 7.3397684-5.54391199 12.25472693.36698006.97331783.89114515 1.87984017 1.55161567 2.683458zM1137.15695757 61.30902864l9.7e-7 283.17039384c.00000255 9.94112496 8.05887235 18.0000005 17.99999809 18.00000084 1.54569809-.00000114 3.0849576-.1990958 4.57978544-.59237126l67.3741619-17.72550001 92.3004878-66.84343907c7.0888391-5.13369187 11.42928568-13.23692302 11.77486143-21.98260654l8.1142837-205.35507268c.20738596-5.24861123-3.87932329-9.67157788-9.12794187-9.87896694-.32736267-.01293589-.6551803-.0089467-.98213268.0119492l-183.1292519 11.70410792c-5.00696534.32000302-8.90424605 4.47431825-8.90425288 9.4915047zM1116.39793227 418.31682638l9.60207098 11.68317166 132.41660502 6.2e-7c15.75812356 2.3e-7 28.53260349-12.77448176 28.53260239-28.5326058l-5.9e-7-47.1378602c-2.3e-7-5.2527077-4.25815406-9.51087197-9.5108622-9.51087265-1.14618754.00000308-2.28293297.20718476-3.3554124.61155334l-153.69270597 57.94842767c-4.91495267 1.85313839-7.39704657 7.33976587-5.54391017 12.25472608.36698459.97331572.89114786 1.87983891 1.55161294 2.68345928z"/>
      <path fill="#FDD735" fill-rule="nonzero" d="M1109.49185 338.061736L553.491848 514.584552l96.94359 1.477184 444.068892-132.6958c8.89362-2.657574 14.98752-10.838686 14.98752-20.120885v-25.183315z"/>
      <path fill="#4FC0B2" fill-rule="nonzero" d="M229.02864826 313.2770164L285.0867037 491.800648c1.5736402 5.011447-1.2132527 10.349715-6.2246996 11.923355-1.929168.605776-4.0011971.580945-5.9152938-.070889l-53.4548623-18.203742 5.62973692-171.6387473c.03621031-1.1039758.9605138-1.96957078 2.06448961-1.93336046.84915737.02785229 1.58804088.58916156 1.84257373 1.39975216z"/>
      <circle cx="1014.99185" cy="326.561736" r="11.5" fill="#270570" fill-rule="nonzero"/>
      <ellipse cx="835.991848" cy="255.061736" fill="#270570" fill-rule="nonzero" rx="10.5" ry="11"/>
      <ellipse cx="376.991848" cy="291.061736" fill="#270570" fill-rule="nonzero" rx="11.5" ry="11"/>
      <path fill="#FFF" fill-rule="nonzero" d="M915.491848 295.986367l15.716177 51.529683c.766176 2.512113 3.423754 3.927474 5.935867 3.161298.040989-.012501.081807-.025556.122444-.039161l16.652188-5.575056c2.458074-.822949 3.80425-3.462917 3.026764-5.935747l-15.741218-50.065648-25.712222 6.924631zM92 312.924631l15.716177 51.529683c.766176 2.512113 3.423755 3.927474 5.935867 3.161298a4.7529442 4.7529442 0 00.122444-.039161l16.652188-5.575056c2.458074-.822949 3.80425-3.462917 3.026764-5.935746L117.712223 306 92 312.924631z"/>
      <path fill="#270570" d="M614.3376771 271.954852c-18.9532353 0-30.0432931 15.3696107-30.0432931 30.7858557 0 18.2372008 27.6607342 49.6518725 27.6607342 49.6518725 1.3158509 1.5509267 3.4600298 1.5532453 4.7762861-.0151514 0 0 27.6316296-31.3995203 27.6316296-49.6367211 0-15.416245-11.0721215-30.7858557-30.0253568-30.7858557zm-10.9121853 29.7604712c0-6.2592542 5.0789263-11.3381032 11.3150763-11.3381032 6.23615 0 11.2990037 5.078849 11.2990037 11.3381032 0 6.1971277-5.0628537 11.2759767-11.2990037 11.2759767s-11.3150763-5.078849-11.3150763-11.2759767z"/>
    </g>
    <ellipse cx="137.777174" cy="179.447464" fill="#270570" fill-rule="nonzero" rx="12" ry="11.5"/>
  </g>
</svg>
